<svg fill="none" height="92" viewBox="0 0 92 92" width="92" xmlns="http://www.w3.org/2000/svg"><path d="m69.5082 40.1069c.0091-.0901.0091-.181 0-.2712-2.3101-10.0758-11.6785-18.2125-21.8722-18.9954-10.709-.8211-20.1656 4.5317-24.8579 14.1359-1.7425 3.554-2.6165 7.3265-2.4417 11.3157-.0595 4.6227 1.1839 8.8941 3.5823 12.7977 3.7679 6.1448 9.1756 10.0138 16.169 11.6106.7207.1675.8216-.02.8198-.6955-.0192-7.8497-.0192-15.6993 0-23.549 0-.6591-.1297-.8794-.8289-.8684-2.3677.0345-4.7373-.011-7.1051-.0274 0-2.5489.0433-5.0979-.0234-7.6469-.0216-.8393.2379-.9504.9929-.9504 4.0508.0401 8.1088.0601 12.1524 0 1.7335-.0255 2.9678.5462 3.6039 2.234l.0757.559c.1802.2403.1171.5225.1171.7901v30.1709c.1163.0091.2332.0091.3496 0 4.8653-.8539 8.8764-3.3574 12.4335-6.6511 3.2525-3.0132 5.3644-6.7984 6.5879-11.0607 1.2236-4.2623 1.3641-8.5773.2451-12.8979zm-24.7391-5.1999c-2.229.1093-4.6148-2.4962-4.6184-5.0451-.0115-.6474.1047-1.2907.3419-1.8922.2371-.6016.5904-1.1494 1.0392-1.6115.4488-.4622.9843-.8294 1.575-1.0803.5908-.2509 1.2251-.3805 1.8659-.3811 1.3005.0029 2.5468.5265 3.4658 1.4562.9191.9296 1.4359 2.1894 1.4374 3.5034-.009 2.7128-2.2272 4.9104-5.1068 5.0506z" fill="#000"/></svg>